<svg xmlns="http://www.w3.org/2000/svg" xmlns:xlink="http://www.w3.org/1999/xlink" width="600" zoomAndPan="magnify" viewBox="0 0 450 187.499995" height="250" preserveAspectRatio="xMidYMid meet" version="1.0"><defs><g/><clipPath id="1879060ed7"><rect x="0" width="439" y="0" height="105"/></clipPath></defs><g transform="matrix(1, 0, 0, 1, 2, 41)"><g clip-path="url(#1879060ed7)"><g fill="#000000" fill-opacity="1"><g transform="translate(0.0944211, 82.136524)"><g><path d="M 6.8125 -54.15625 L 23.671875 -54.15625 C 30.878906 -54.15625 36.332031 -53.140625 40.03125 -51.109375 C 43.738281 -49.085938 45.59375 -45.535156 45.59375 -40.453125 C 45.59375 -38.398438 45.265625 -36.546875 44.609375 -34.890625 C 43.960938 -33.234375 43.019531 -31.875 41.78125 -30.8125 C 40.550781 -29.75 39.046875 -29.0625 37.265625 -28.75 L 37.265625 -28.375 C 39.066406 -28 40.695312 -27.359375 42.15625 -26.453125 C 43.613281 -25.554688 44.78125 -24.25 45.65625 -22.53125 C 46.53125 -20.820312 46.96875 -18.546875 46.96875 -15.703125 C 46.96875 -12.421875 46.164062 -9.601562 44.5625 -7.25 C 42.957031 -4.90625 40.664062 -3.109375 37.6875 -1.859375 C 34.707031 -0.617188 31.171875 0 27.078125 0 L 6.8125 0 Z M 18.296875 -32.703125 L 24.96875 -32.703125 C 28.300781 -32.703125 30.609375 -33.226562 31.890625 -34.28125 C 33.171875 -35.332031 33.8125 -36.882812 33.8125 -38.9375 C 33.8125 -41.007812 33.050781 -42.492188 31.53125 -43.390625 C 30.019531 -44.296875 27.617188 -44.75 24.328125 -44.75 L 18.296875 -44.75 Z M 18.296875 -23.59375 L 18.296875 -9.484375 L 25.78125 -9.484375 C 29.238281 -9.484375 31.644531 -10.148438 33 -11.484375 C 34.363281 -12.816406 35.046875 -14.609375 35.046875 -16.859375 C 35.046875 -18.191406 34.75 -19.363281 34.15625 -20.375 C 33.5625 -21.382812 32.566406 -22.171875 31.171875 -22.734375 C 29.773438 -23.304688 27.851562 -23.59375 25.40625 -23.59375 Z M 18.296875 -23.59375 "/></g></g></g><g fill="#000000" fill-opacity="1"><g transform="translate(51.051217, 82.136524)"><g><path d="M 23 -42.1875 C 26.832031 -42.1875 30.128906 -41.453125 32.890625 -39.984375 C 35.660156 -38.515625 37.796875 -36.382812 39.296875 -33.59375 C 40.804688 -30.800781 41.5625 -27.394531 41.5625 -23.375 L 41.5625 -17.890625 L 14.859375 -17.890625 C 14.972656 -14.703125 15.925781 -12.203125 17.71875 -10.390625 C 19.507812 -8.578125 22 -7.671875 25.1875 -7.671875 C 27.832031 -7.671875 30.253906 -7.941406 32.453125 -8.484375 C 34.648438 -9.023438 36.90625 -9.835938 39.21875 -10.921875 L 39.21875 -2.1875 C 37.175781 -1.175781 35.035156 -0.4375 32.796875 0.03125 C 30.566406 0.5 27.859375 0.734375 24.671875 0.734375 C 20.523438 0.734375 16.851562 -0.03125 13.65625 -1.5625 C 10.457031 -3.09375 7.945312 -5.425781 6.125 -8.5625 C 4.3125 -11.695312 3.40625 -15.644531 3.40625 -20.40625 C 3.40625 -25.25 4.222656 -29.28125 5.859375 -32.5 C 7.503906 -35.726562 9.796875 -38.148438 12.734375 -39.765625 C 15.679688 -41.378906 19.101562 -42.1875 23 -42.1875 Z M 23.078125 -34.15625 C 20.878906 -34.15625 19.054688 -33.445312 17.609375 -32.03125 C 16.171875 -30.625 15.335938 -28.414062 15.109375 -25.40625 L 30.96875 -25.40625 C 30.9375 -27.082031 30.628906 -28.578125 30.046875 -29.890625 C 29.472656 -31.203125 28.613281 -32.238281 27.46875 -33 C 26.320312 -33.769531 24.859375 -34.15625 23.078125 -34.15625 Z M 23.078125 -34.15625 "/></g></g></g><g fill="#000000" fill-opacity="1"><g transform="translate(95.860609, 82.136524)"><g><path d="M 23.375 -8.265625 C 24.601562 -8.265625 25.804688 -8.382812 26.984375 -8.625 C 28.160156 -8.875 29.328125 -9.1875 30.484375 -9.5625 L 30.484375 -1.140625 C 29.273438 -0.597656 27.773438 -0.148438 25.984375 0.203125 C 24.191406 0.554688 22.234375 0.734375 20.109375 0.734375 C 17.640625 0.734375 15.421875 0.332031 13.453125 -0.46875 C 11.492188 -1.269531 9.953125 -2.660156 8.828125 -4.640625 C 7.710938 -6.628906 7.15625 -9.40625 7.15625 -12.96875 L 7.15625 -32.921875 L 1.734375 -32.921875 L 1.734375 -37.703125 L 7.96875 -41.484375 L 11.21875 -50.234375 L 18.453125 -50.234375 L 18.453125 -41.40625 L 30.046875 -41.40625 L 30.046875 -32.921875 L 18.453125 -32.921875 L 18.453125 -12.96875 C 18.453125 -11.382812 18.898438 -10.203125 19.796875 -9.421875 C 20.703125 -8.648438 21.894531 -8.265625 23.375 -8.265625 Z M 23.375 -8.265625 "/></g></g></g><g fill="#000000" fill-opacity="1"><g transform="translate(128.782551, 82.136524)"><g><path d="M 23.375 -8.265625 C 24.601562 -8.265625 25.804688 -8.382812 26.984375 -8.625 C 28.160156 -8.875 29.328125 -9.1875 30.484375 -9.5625 L 30.484375 -1.140625 C 29.273438 -0.597656 27.773438 -0.148438 25.984375 0.203125 C 24.191406 0.554688 22.234375 0.734375 20.109375 0.734375 C 17.640625 0.734375 15.421875 0.332031 13.453125 -0.46875 C 11.492188 -1.269531 9.953125 -2.660156 8.828125 -4.640625 C 7.710938 -6.628906 7.15625 -9.40625 7.15625 -12.96875 L 7.15625 -32.921875 L 1.734375 -32.921875 L 1.734375 -37.703125 L 7.96875 -41.484375 L 11.21875 -50.234375 L 18.453125 -50.234375 L 18.453125 -41.40625 L 30.046875 -41.40625 L 30.046875 -32.921875 L 18.453125 -32.921875 L 18.453125 -12.96875 C 18.453125 -11.382812 18.898438 -10.203125 19.796875 -9.421875 C 20.703125 -8.648438 21.894531 -8.265625 23.375 -8.265625 Z M 23.375 -8.265625 "/></g></g></g><g fill="#000000" fill-opacity="1"><g transform="translate(161.704493, 82.136524)"><g><path d="M 23 -42.1875 C 26.832031 -42.1875 30.128906 -41.453125 32.890625 -39.984375 C 35.660156 -38.515625 37.796875 -36.382812 39.296875 -33.59375 C 40.804688 -30.800781 41.5625 -27.394531 41.5625 -23.375 L 41.5625 -17.890625 L 14.859375 -17.890625 C 14.972656 -14.703125 15.925781 -12.203125 17.71875 -10.390625 C 19.507812 -8.578125 22 -7.671875 25.1875 -7.671875 C 27.832031 -7.671875 30.253906 -7.941406 32.453125 -8.484375 C 34.648438 -9.023438 36.90625 -9.835938 39.21875 -10.921875 L 39.21875 -2.1875 C 37.175781 -1.175781 35.035156 -0.4375 32.796875 0.03125 C 30.566406 0.5 27.859375 0.734375 24.671875 0.734375 C 20.523438 0.734375 16.851562 -0.03125 13.65625 -1.5625 C 10.457031 -3.09375 7.945312 -5.425781 6.125 -8.5625 C 4.3125 -11.695312 3.40625 -15.644531 3.40625 -20.40625 C 3.40625 -25.25 4.222656 -29.28125 5.859375 -32.5 C 7.503906 -35.726562 9.796875 -38.148438 12.734375 -39.765625 C 15.679688 -41.378906 19.101562 -42.1875 23 -42.1875 Z M 23.078125 -34.15625 C 20.878906 -34.15625 19.054688 -33.445312 17.609375 -32.03125 C 16.171875 -30.625 15.335938 -28.414062 15.109375 -25.40625 L 30.96875 -25.40625 C 30.9375 -27.082031 30.628906 -28.578125 30.046875 -29.890625 C 29.472656 -31.203125 28.613281 -32.238281 27.46875 -33 C 26.320312 -33.769531 24.859375 -34.15625 23.078125 -34.15625 Z M 23.078125 -34.15625 "/></g></g></g><g fill="#000000" fill-opacity="1"><g transform="translate(206.513884, 82.136524)"><g><path d="M 29.046875 -42.1875 C 29.609375 -42.1875 30.265625 -42.15625 31.015625 -42.09375 C 31.773438 -42.03125 32.390625 -41.953125 32.859375 -41.859375 L 32 -31.265625 C 31.632812 -31.390625 31.109375 -31.476562 30.421875 -31.53125 C 29.742188 -31.59375 29.160156 -31.625 28.671875 -31.625 C 27.210938 -31.625 25.796875 -31.4375 24.421875 -31.0625 C 23.054688 -30.695312 21.828125 -30.101562 20.734375 -29.28125 C 19.648438 -28.457031 18.789062 -27.367188 18.15625 -26.015625 C 17.53125 -24.671875 17.21875 -23.023438 17.21875 -21.078125 L 17.21875 0 L 5.921875 0 L 5.921875 -41.40625 L 14.484375 -41.40625 L 16.15625 -34.453125 L 16.703125 -34.453125 C 17.515625 -35.859375 18.53125 -37.144531 19.75 -38.3125 C 20.976562 -39.488281 22.375 -40.425781 23.9375 -41.125 C 25.507812 -41.832031 27.210938 -42.1875 29.046875 -42.1875 Z M 29.046875 -42.1875 "/></g></g></g><g fill="#000000" fill-opacity="1"><g transform="translate(240.968506, 82.136524)"><g><path d="M 29.75 0 L 15.109375 0 L 15.109375 -42.1875 L 1.890625 -42.1875 L 1.890625 -54.15625 L 42.9375 -54.15625 L 42.9375 -42.1875 L 29.75 -42.1875 Z M 29.75 0 "/></g></g></g><g fill="#000000" fill-opacity="1"><g transform="translate(285.777898, 82.136524)"><g><path d="M 45.078125 -21.078125 C 45.078125 -17.566406 44.59375 -14.453125 43.625 -11.734375 C 42.664062 -9.023438 41.269531 -6.742188 39.4375 -4.890625 C 37.613281 -3.035156 35.40625 -1.632812 32.8125 -0.6875 C 30.21875 0.257812 27.296875 0.734375 24.046875 0.734375 C 21.003906 0.734375 18.21875 0.257812 15.6875 -0.6875 C 13.15625 -1.632812 10.953125 -3.035156 9.078125 -4.890625 C 7.203125 -6.742188 5.75 -9.023438 4.71875 -11.734375 C 3.695312 -14.453125 3.1875 -17.566406 3.1875 -21.078125 C 3.1875 -25.722656 4.03125 -29.648438 5.71875 -32.859375 C 7.414062 -36.066406 9.835938 -38.507812 12.984375 -40.1875 C 16.128906 -41.863281 19.890625 -42.703125 24.265625 -42.703125 C 28.285156 -42.703125 31.863281 -41.863281 35 -40.1875 C 38.132812 -38.507812 40.597656 -36.066406 42.390625 -32.859375 C 44.179688 -29.648438 45.078125 -25.722656 45.078125 -21.078125 Z M 17.890625 -21.078125 C 17.890625 -18.679688 18.097656 -16.660156 18.515625 -15.015625 C 18.941406 -13.378906 19.613281 -12.132812 20.53125 -11.28125 C 21.457031 -10.425781 22.675781 -10 24.1875 -10 C 25.695312 -10 26.894531 -10.425781 27.78125 -11.28125 C 28.664062 -12.132812 29.3125 -13.378906 29.71875 -15.015625 C 30.132812 -16.660156 30.34375 -18.679688 30.34375 -21.078125 C 30.34375 -23.472656 30.132812 -25.472656 29.71875 -27.078125 C 29.3125 -28.679688 28.65625 -29.890625 27.75 -30.703125 C 26.851562 -31.515625 25.640625 -31.921875 24.109375 -31.921875 C 21.910156 -31.921875 20.320312 -31.007812 19.34375 -29.1875 C 18.375 -27.363281 17.890625 -24.660156 17.890625 -21.078125 Z M 17.890625 -21.078125 "/></g></g></g><g fill="#000000" fill-opacity="1"><g transform="translate(334.105382, 82.136524)"><g><path d="M 51.8125 -28.21875 C 51.8125 -21.925781 50.640625 -16.691406 48.296875 -12.515625 C 45.953125 -8.347656 42.648438 -5.21875 38.390625 -3.125 C 34.128906 -1.039062 29.125 0 23.375 0 L 5.859375 0 L 5.859375 -54.15625 L 24.59375 -54.15625 C 30.425781 -54.15625 35.363281 -53.15625 39.40625 -51.15625 C 43.457031 -49.15625 46.535156 -46.226562 48.640625 -42.375 C 50.753906 -38.519531 51.8125 -33.800781 51.8125 -28.21875 Z M 36.640625 -27.703125 C 36.640625 -30.992188 36.195312 -33.71875 35.3125 -35.875 C 34.4375 -38.03125 33.125 -39.644531 31.375 -40.71875 C 29.625 -41.800781 27.414062 -42.34375 24.75 -42.34375 L 20.484375 -42.34375 L 20.484375 -12 L 23.75 -12 C 28.1875 -12 31.441406 -13.289062 33.515625 -15.875 C 35.597656 -18.457031 36.640625 -22.398438 36.640625 -27.703125 Z M 36.640625 -27.703125 "/></g></g></g><g fill="#000000" fill-opacity="1"><g transform="translate(389.765312, 82.136524)"><g><path d="M 45.078125 -21.078125 C 45.078125 -17.566406 44.59375 -14.453125 43.625 -11.734375 C 42.664062 -9.023438 41.269531 -6.742188 39.4375 -4.890625 C 37.613281 -3.035156 35.40625 -1.632812 32.8125 -0.6875 C 30.21875 0.257812 27.296875 0.734375 24.046875 0.734375 C 21.003906 0.734375 18.21875 0.257812 15.6875 -0.6875 C 13.15625 -1.632812 10.953125 -3.035156 9.078125 -4.890625 C 7.203125 -6.742188 5.75 -9.023438 4.71875 -11.734375 C 3.695312 -14.453125 3.1875 -17.566406 3.1875 -21.078125 C 3.1875 -25.722656 4.03125 -29.648438 5.71875 -32.859375 C 7.414062 -36.066406 9.835938 -38.507812 12.984375 -40.1875 C 16.128906 -41.863281 19.890625 -42.703125 24.265625 -42.703125 C 28.285156 -42.703125 31.863281 -41.863281 35 -40.1875 C 38.132812 -38.507812 40.597656 -36.066406 42.390625 -32.859375 C 44.179688 -29.648438 45.078125 -25.722656 45.078125 -21.078125 Z M 17.890625 -21.078125 C 17.890625 -18.679688 18.097656 -16.660156 18.515625 -15.015625 C 18.941406 -13.378906 19.613281 -12.132812 20.53125 -11.28125 C 21.457031 -10.425781 22.675781 -10 24.1875 -10 C 25.695312 -10 26.894531 -10.425781 27.78125 -11.28125 C 28.664062 -12.132812 29.3125 -13.378906 29.71875 -15.015625 C 30.132812 -16.660156 30.34375 -18.679688 30.34375 -21.078125 C 30.34375 -23.472656 30.132812 -25.472656 29.71875 -27.078125 C 29.3125 -28.679688 28.65625 -29.890625 27.75 -30.703125 C 26.851562 -31.515625 25.640625 -31.921875 24.109375 -31.921875 C 21.910156 -31.921875 20.320312 -31.007812 19.34375 -29.1875 C 18.375 -27.363281 17.890625 -24.660156 17.890625 -21.078125 Z M 17.890625 -21.078125 "/></g></g></g></g></g></svg>